<svg fill="green" xmlns="http://www.w3.org/2000/svg" viewBox="0 0 910 354"><path d="m450.19,123.31v-2.04c6.25-3.64,11.92-7.95,11.92-18.96,0-12.35-7.38-25.55-36.67-25.55h-61.65v95.38h59.5c30.54,0,41.21-11.69,41.21-26.91,0-10.78-5.45-17.14-14.3-21.91Zm-52.12-20.32l23.5.02c6.35,0,7.72,3.5,7.72,6,0,2.3-1.36,5.9-7.72,5.9h-23.5v-11.92Zm23.95,42.9h-23.95v-12.83h23.97c6.36,0,7.72,3.95,7.72,6.35,0,2.06-1.36,6.49-7.73,6.47Z" fill="currentColor"/><polygon points="554.53 143.52 505.03 143.52 505.03 76.76 470.74 76.76 470.74 172.13 554.53 172.13 554.53 143.52" fill="currentColor"/><path d="m596.78,160.67h38.83l3.64,11.5h35.54l-34.52-95.41h-48.14l-34.38,95.38h35.4l3.64-11.47Zm16.46-51.66h5.9l8.4,26.34h-22.71l8.4-26.34Z" fill="currentColor"/><path d="m721.9,175.32c24.32,0,48.71-10.57,51.32-44.4h-32.7c-2.14,10.1-8.84,14.76-18.6,14.76-10.98,0-19.98-8.17-19.98-21.23s8.97-21.24,19.98-21.24c9.74,0,16.45,4.66,18.6,14.53h32.7c-2.61-33.61-27.36-44.17-51.32-44.17-32.59,0-54.04,20.1-54.04,50.87h0c0,30.77,21.46,50.86,54.04,50.87Z" fill="currentColor"/><polygon points="846.46 119.22 884.95 76.76 846.8 76.76 815.46 111.96 813.19 111.96 813.19 76.76 778.99 76.76 778.99 172.15 813.19 172.15 813.19 152.84 825.11 140.01 827.27 140.01 850.88 172.13 885.85 172.13 846.46 119.22" fill="currentColor"/><path d="m413.86,218.88l-9.99-1.59c-6.47-1.02-7.27-4.2-7.27-5.79,0-3.4,3.52-6.13,13.17-6.13,11.24,0,16.12,3.4,17.14,8.96h30.66c.8-28.38-18.85-35.65-47.01-35.65-31.56,0-46.89,11.8-46.89,31,0,25.66,22.94,26.91,40.87,29.74l12.49,1.93c8.63,1.13,9.08,4.33,9.08,6.13,0,3.4-4.77,6.35-15.89,6.25-12.95-.2-17.71-3.52-17.94-9.2h-30.77c-1.03,25.54,14.53,35.76,48.71,35.88,33.72.11,50.07-10.1,50.07-31.45,0-27.25-27.24-26.91-46.44-30.09Z" fill="currentColor"/><path d="m521.27,181.87h-55.52v95.37s34.29,0,34.29,0v-19.41h21.35c26.11,0,42.12-11.35,42.12-37.92s-16.01-38.04-42.24-38.04Zm-3.07,47.46h-18.17v-18.96h18.28c6.25,0,10.45,3.18,10.45,9.54s-4.2,9.42-10.56,9.42Z" fill="currentColor"/><rect x="569.75" y="181.87" width="34.29" height="95.37" fill="currentColor"/><polygon points="717.47 181.87 679.32 181.87 647.98 217.07 645.71 217.07 645.71 181.87 611.51 181.87 611.51 277.24 645.71 277.24 645.71 257.94 657.63 245.11 659.79 245.11 683.41 277.24 718.38 277.24 678.98 224.34 717.47 181.87" fill="currentColor"/><polygon points="720.88 277.24 808.64 277.24 808.64 249.77 755.17 249.77 755.17 240.57 806.6 240.57 806.6 218.55 755.17 218.55 755.17 209.23 808.65 209.23 808.65 181.87 720.88 181.87 720.88 277.24" fill="currentColor"/><path d="m167.88,162.93l25.33-33.77,21.34-38.96v-52.71l-46.87-20.54-46.45,20.56v52.75l20.81,38.1,25.84,34.57Zm-20.65-108.5l20.5-9.07,20.82,9.12v29.07l-17.25,31.49-3.38,4.51-3.95-5.28-16.74-30.65v-29.19Z" fill="currentColor"/><path d="m180.28,169.63l41.89,5.13,44.4-.93,45.69-26.28-5.54-50.87-40.99-30.02-45.68,26.28-22.69,37.04-17.08,39.65Zm40.23-27.65l18.25-29.81,25.26-14.53,18.1,13.25,2.46,22.59-25.2,14.49-35.9.75-5.59-.68,2.62-6.06Z" fill="currentColor"/><path d="m266.98,179.97l-43.45-1.21-42.88,4.96,16.45,38.87,22.94,38.04,45.56,26.55,41.33-30.22,5.58-50.49-45.53-26.5Zm15.37,62.76l-18.36,13.42-25.12-14.64-18.55-30.76-2.19-5.19,6.54-.75,34.96.97,25.18,14.65-2.46,22.3Z" fill="currentColor"/><path d="m168.67,191.06l-25.49,33.63-21.53,38.85-.28,52.72,46.72,20.79,46.56-20.33.26-52.63-20.61-38.25-25.63-34.78Zm20.07,108.61l-20.55,8.97-20.73-9.23.15-29.08,17.41-31.41,3.36-4.43,3.9,5.3,16.6,30.8-.14,29.08Z" fill="currentColor"/><path d="m156.27,184.3l-41.87-5.34-44.42.71-45.83,26.04,5.26,50.9,40.86,30.21,45.85-26.02,22.86-36.95,17.29-39.55Zm-40.38,27.45l-18.39,29.72-25.37,14.4-18.04-13.35-2.33-22.59,25.28-14.37,35.91-.57,5.59.71-2.65,6.05Z" fill="currentColor"/><path d="m113.06,174.94l42.9-4.73-16.19-38.96-22.8-38.1-45.43-26.79-41.47,29.95-5.85,50.46,45.4,26.74,43.44,1.43Zm-58.49-64.26l18.41-13.29,25.08,14.79,18.42,30.79,2.16,5.2-6.58.72-34.96-1.15-25.11-14.78,2.58-22.28Z" fill="currentColor"/></svg>